<?xml version="1.0" encoding="UTF-8"?><svg xmlns="http://www.w3.org/2000/svg" xmlns:xlink="http://www.w3.org/1999/xlink" viewBox="0 0 800 400"><defs><style>.u{fill:url(#j);}.u,.v,.w,.x,.y,.a`,.aa,.ab,.ac,.ad,.ae,.af,.ag,.ah,.ai,.aj{fill-rule:evenodd;}.v{fill:url(#r);}.v,.a`,.aj{mix-blend-mode:multiply;opacity:.32;}.w{fill:url(#o);}.w,.y,.aa,.ae,.ai{mix-blend-mode:soft-light;}.x{fill:url(#g);}.y{fill:url(#i);}.ak{isolation:isolate;}.al{fill:url(#t);mix-blend-mode:screen;}.a`{fill:url(#s);}.aa{fill:url(#p);}.ab{fill:url(#h);}.ac{fill:url(#k);}.ad{fill:url(#f);}.ae{fill:#cac9e1;}.af{fill:url(#m);}.am{clip-path:url(#d);}.an{fill:none;}.ag{fill:url(#e);}.ah{fill:url(#l);}.ai{fill:url(#n);}.aj{fill:url(#q);}</style><clipPath id="d"><rect class="an" width="800" height="400"/></clipPath><linearGradient id="e" x1="722.62" y1="370.6" x2="722.62" y2="-26.9" gradientTransform="translate(1120.67) rotate(-180) scale(1 -1)" gradientUnits="userSpaceOnUse"><stop offset="0" stop-color="#895ede"/><stop offset="1" stop-color="#8f66dc"/></linearGradient><linearGradient id="f" x1="721" y1="310.74" x2="721" y2="-26.9" gradientTransform="translate(1120.67) rotate(-180) scale(1 -1)" gradientUnits="userSpaceOnUse"><stop offset="0" stop-color="#7d2fca"/><stop offset="1" stop-color="#822fc0"/></linearGradient><linearGradient id="g" x1="722.62" y1="370.6" x2="722.62" y2="31.92" xlink:href="#f"/><linearGradient id="h" x1="720.98" y1="256.69" x2="720.98" y2="-68.69" xlink:href="#f"/><radialGradient id="i" cx="721" cy="117.18" fx="721" fy="117.18" r="315.19" gradientTransform="translate(1120.67) rotate(-180) scale(1 -1)" gradientUnits="userSpaceOnUse"><stop offset="0" stop-color="#7666d1"/><stop offset="1" stop-color="#fff"/></radialGradient><radialGradient id="j" cx="532.72" cy="40.78" fx="532.72" fy="40.78" r="13.97" gradientTransform="translate(1120.67) rotate(-180) scale(1 -1)" gradientUnits="userSpaceOnUse"><stop offset="0" stop-color="#f8a7ff"/><stop offset="1" stop-color="#b394fe"/></radialGradient><radialGradient id="k" cx="692.27" cy="104.24" fx="692.27" fy="104.24" r="14.19" xlink:href="#j"/><radialGradient id="l" cx="1048.16" cy="245.55" fx="1048.16" fy="245.55" r="14.19" gradientTransform="translate(1120.67 -10.88) rotate(-180) scale(1 -1.05)" xlink:href="#j"/><radialGradient id="m" cx="866.14" cy="173.86" fx="866.14" fy="173.86" r="14.72" xlink:href="#j"/><linearGradient id="n" x1="314.37" y1="93.19" x2="1127.63" y2="93.19" gradientTransform="translate(1120.67) rotate(-180) scale(1 -1)" gradientUnits="userSpaceOnUse"><stop offset="0" stop-color="#fff"/><stop offset="1" stop-color="#7666d1"/></linearGradient><linearGradient id="o" y1="137.05" y2="137.05" xlink:href="#n"/><linearGradient id="p" y1="195.51" x2="1130.87" y2="195.51" xlink:href="#n"/><linearGradient id="q" x1="314.37" y1="150.85" x2="1127.63" y2="150.85" gradientTransform="translate(1120.67) rotate(-180) scale(1 -1)" gradientUnits="userSpaceOnUse"><stop offset="0" stop-color="#3922bd"/><stop offset="1" stop-color="#fff"/></linearGradient><linearGradient id="r" x1="480.63" y1="73.65" x2="481.3" y2="73.65" xlink:href="#q"/><linearGradient id="s" x1="1034.08" y1="295.48" x2="1034.75" y2="295.48" xlink:href="#q"/><radialGradient id="t" cx="412.22" cy="9.14" fx="412.22" fy="9.14" r="5.18" gradientTransform="translate(710.61 -1249.28) rotate(90) scale(3.22 22.92)" gradientUnits="userSpaceOnUse"><stop offset="0" stop-color="#b931ca"/><stop offset=".26" stop-color="#82228e"/><stop offset=".62" stop-color="#3c1042"/><stop offset=".87" stop-color="#100412"/><stop offset="1" stop-color="#000"/></radialGradient></defs><g class="ak"><g id="a"/><g id="b"><g id="c"><g class="am"><g><polygon class="ag" points="-10.2 370.6 806.29 43.14 806.29 -26.9 -6.96 299.77 -10.2 370.6"/><polygon class="ad" points="806.29 -26.9 806.29 -18.07 -6.96 310.74 -6.96 299.77 806.29 -26.9"/><polygon class="x" points="806.29 43.14 806.29 31.92 -10.2 357.65 -10.2 370.6 806.29 43.14"/><polygon class="ab" points="806.29 -68.69 -6.92 252.98 -6.92 256.69 806.29 -65.42 806.29 -68.69"/><polygon class="y" points="806.29 -65.42 -6.92 256.69 -6.96 299.77 806.29 -26.9 806.29 -65.42"/><polygon class="u" points="588.12 21.02 588.12 60.41 587.77 60.53 587.77 21.1 588.12 21.02"/><polygon class="ac" points="428.58 84.18 428.58 124.18 428.22 124.3 428.22 84.26 428.58 84.18"/><polygon class="ah" points="72.68 225.18 72.68 267.06 72.32 267.19 72.32 225.27 72.68 225.18"/><polygon class="af" points="254.7 153.04 254.7 194.55 254.35 194.67 254.35 153.13 254.7 153.04"/><polygon class="ai" points="806.29 -68.69 806.29 -67.56 -6.96 255.06 -6.92 252.98 806.29 -68.69"/><polygon class="ae" points="534.15 38.88 535.11 39.84 442.88 76.56 444.62 74.4 534.15 38.88"/><polygon class="w" points="806.29 -26.9 806.29 -26.04 -6.92 301 -6.96 299.77 806.29 -26.9"/><polygon class="ae" points="536.17 82.34 535.61 81.56 461.6 111.28 462.27 112 536.17 82.34"/><polygon class="aa" points="806.29 31.92 806.29 33.89 -10.2 359.1 -10.2 357.65 806.29 31.92"/><polygon class="ae" points="610.67 111.6 608.58 110.57 520.65 145.68 521.45 147.16 610.67 111.6"/><path class="aj" d="M806.29-18.07v3.61S172.66,241.28-6.92,319.77l-.04-9.03L806.29-18.07Z"/><g><polygon class="v" points="640.03 48.85 640.03 98.45 639.81 98.45 639.36 49.02 640.03 48.85"/><path class="ae" d="M639.36,49.02l.45,49.43s-1.5-36.81-.45-49.43Z"/></g><g><polygon class="a`" points="86.59 272.9 86.59 318.07 86.36 318.07 85.91 273.05 86.59 272.9"/><path class="ae" d="M85.91,273.05l.45,45.02s-1.5-33.53-.45-45.02Z"/></g><ellipse class="al" cx="501.02" cy="78.16" rx="118.72" ry="16.68" transform="translate(6.7 191.2) rotate(-21.75)"/></g></g></g></g></g></svg>