<?xml version="1.0" encoding="UTF-8"?><svg xmlns="http://www.w3.org/2000/svg" xmlns:xlink="http://www.w3.org/1999/xlink" viewBox="0 0 800 400"><defs><style>.au{fill:url(#t);}.au,.av,.aw,.ax,.ay,.b`,.ba,.bb{mix-blend-mode:multiply;}.au,.av,.aw,.ay,.b`,.ba,.bb{opacity:.9;}.bc{fill:url(#ai);}.bd{clip-path:url(#ak);}.be{fill:url(#y);}.bf{fill:url(#l);}.av{fill:url(#u);}.bg{fill:url(#af);}.aw{fill:url(#r);}.bh{fill:url(#ah);}.bi{isolation:isolate;}.bj{fill:url(#a`);}.bk{fill:url(#aq);}.bk,.bl,.bm,.ax,.bn,.bo,.bp,.bq,.br{fill-rule:evenodd;}.bk,.bl,.bm,.bs,.bq{mix-blend-mode:soft-light;}.bt{fill:url(#m);}.bu{fill:url(#f);}.bv{fill:url(#ae);}.bl{fill:url(#ar);}.bw{fill:url(#p);}.bx{fill:url(#g);}.by{fill:url(#ad);}.bm{fill:url(#as);}.c`{fill:url(#i);}.ax{fill:url(#at);opacity:.32;}.bn{fill:url(#am);}.ca{fill:url(#h);}.cb{fill:url(#d);}.cc{fill:url(#e);}.ay{fill:url(#s);}.cd{fill:none;}.ce{fill:url(#x);}.b`{fill:url(#aa);}.bs{fill:url(#w);opacity:.64;}.ba{fill:url(#v);}.bo{fill:url(#an);}.cf{fill:url(#n);}.bp{fill:url(#al);}.cg{fill:url(#ac);}.ch{fill:url(#j);}.bq{fill:url(#ap);}.ci{fill:url(#o);}.cj{fill:url(#q);}.ck{fill:url(#ag);}.br{fill:url(#ao);}.cl{fill:url(#k);}.bb{fill:url(#ab);}</style><linearGradient id="d" x1="518.46" y1="7.24" x2="518.46" y2="-15.51" gradientTransform="translate(899.14 -138.61) rotate(159.86) scale(1 -1)" gradientUnits="userSpaceOnUse"><stop offset=".02" stop-color="#ffc2a9"/><stop offset="1" stop-color="#ff9595"/></linearGradient><linearGradient id="e" x1="520.28" y1="7.5" x2="520.28" y2="-14.83" gradientTransform="translate(899.14 -138.61) rotate(159.86) scale(1 -1)" gradientUnits="userSpaceOnUse"><stop offset="0" stop-color="#f48781"/><stop offset="1" stop-color="#ef7a8e"/></linearGradient><linearGradient id="f" x1="408.26" y1="111.47" x2="408.26" y2="111.46" gradientTransform="matrix(1, 0, 0, 1, 0, 0)" gradientUnits="userSpaceOnUse"><stop offset="0" stop-color="#151047"/><stop offset="1" stop-color="#2e1a5b"/></linearGradient><linearGradient id="g" x1="408.03" y1="110.59" x2="408.03" y2="86.52" xlink:href="#f"/><linearGradient id="h" x1="521.91" y1="-7.3" x2="521.91" y2="-10.67" gradientTransform="translate(899.14 -138.61) rotate(159.86) scale(1 -1)" gradientUnits="userSpaceOnUse"><stop offset="0" stop-color="#db5f69"/><stop offset="1" stop-color="#dc505e"/></linearGradient><linearGradient id="i" x1="522.51" y1="47.25" x2="522.51" y2="43.11" gradientTransform="translate(936.26) rotate(-180) scale(1 -1)" gradientUnits="userSpaceOnUse"><stop offset="0" stop-color="#b9acf4"/><stop offset="1" stop-color="#e1d1f5"/></linearGradient><linearGradient id="j" x1="524.11" y1="86.3" x2="524.11" y2="45.18" xlink:href="#i"/><linearGradient id="k" x1="408.26" y1="111.47" x2="408.26" y2="111.46" gradientTransform="matrix(1, 0, 0, 1, 0, 0)" gradientUnits="userSpaceOnUse"><stop offset="0" stop-color="#241059"/><stop offset="1" stop-color="#5b1a72"/></linearGradient><linearGradient id="l" x1="412.13" y1="113.09" x2="412.13" y2="80.91" xlink:href="#k"/><linearGradient id="m" x1="526.23" y1="-3.76" x2="526.23" y2="-4.93" xlink:href="#e"/><linearGradient id="n" x1="526.08" y1="-2.34" x2="526.08" y2="-2.76" xlink:href="#e"/><linearGradient id="o" x1="517.73" y1="-.52" x2="517.73" y2="-3.44" xlink:href="#h"/><linearGradient id="p" x1="518.36" y1="1.15" x2="518.36" y2="-.4" xlink:href="#h"/><linearGradient id="q" x1="522.34" y1="2.56" x2="522.34" y2="-.4" xlink:href="#h"/><linearGradient id="r" x1="509.57" y1="-10.4" x2="509.57" y2="-10.41" gradientTransform="translate(899.14 -138.61) rotate(159.86) scale(1 -1)" gradientUnits="userSpaceOnUse"><stop offset="0" stop-color="#ccb8ff"/><stop offset="1" stop-color="#af8bc2"/></linearGradient><linearGradient id="s" x1="528.21" y1="79.35" x2="528.21" y2="58.93" gradientTransform="translate(936.26) rotate(-180) scale(1 -1)" xlink:href="#r"/><linearGradient id="t" x1="524.52" y1="82.64" x2="524.52" y2="77.55" gradientTransform="translate(936.26) rotate(-180) scale(1 -1)" xlink:href="#r"/><linearGradient id="u" x1="525.56" y1="86.3" x2="525.56" y2="80.89" gradientTransform="translate(936.26) rotate(-180) scale(1 -1)" xlink:href="#r"/><linearGradient id="v" x1="415.52" y1="113.09" x2="415.52" y2="90.69" gradientTransform="matrix(1, 0, 0, 1, 0, 0)" xlink:href="#r"/><linearGradient id="w" x1="516.39" y1="50.64" x2="525.56" y2="50.64" gradientTransform="translate(936.26) rotate(-180) scale(1 -1)" gradientUnits="userSpaceOnUse"><stop offset="0" stop-color="#ff9595"/><stop offset=".98" stop-color="#ffc2a9"/></linearGradient><linearGradient id="x" x1="414.72" y1="-6.74" x2="414.72" y2="-8.11" gradientTransform="translate(19.43 184.29) rotate(-20.14)" xlink:href="#h"/><linearGradient id="y" x1="578.31" y1="65.17" x2="578.31" y2="60.99" gradientTransform="translate(965.58) rotate(-180) scale(1 -1)" xlink:href="#i"/><linearGradient id="a`" x1="565.33" y1="71.68" x2="565.33" y2="46.62" gradientTransform="translate(965.58) rotate(-180) scale(1 -1)" xlink:href="#i"/><linearGradient id="aa" x1="563.94" y1="65.38" x2="563.94" y2="62.64" gradientTransform="translate(965.58) rotate(-180) scale(1 -1)" xlink:href="#r"/><linearGradient id="ab" x1="570.74" y1="71.68" x2="570.74" y2="61.08" gradientTransform="translate(965.58) rotate(-180) scale(1 -1)" xlink:href="#r"/><linearGradient id="ac" x1="416.93" y1="41.43" x2="409.78" y2="21.95" gradientTransform="matrix(1, 0, 0, 1, 0, 0)" gradientUnits="userSpaceOnUse"><stop offset="0" stop-color="#382763"/><stop offset="1" stop-color="#5b38ae"/></linearGradient><linearGradient id="ad" x1="639.08" y1="63.58" x2="639.08" y2="55.82" gradientTransform="translate(1017.48) rotate(-180) scale(1 -1)" xlink:href="#d"/><linearGradient id="ae" x1="635.33" y1="63.58" x2="635.33" y2="60.58" gradientTransform="translate(1017.48) rotate(-180) scale(1 -1)" xlink:href="#e"/><linearGradient id="af" x1="642.84" y1="61.2" x2="642.84" y2="59.26" gradientTransform="translate(1017.48) rotate(-180) scale(1 -1)" xlink:href="#h"/><linearGradient id="ag" x1="642.76" y1="57.82" x2="642.76" y2="57.32" gradientTransform="translate(1017.48) rotate(-180) scale(1 -1)" xlink:href="#h"/><linearGradient id="ah" x1="639.41" y1="60.34" x2="639.41" y2="59.13" gradientTransform="translate(1017.48) rotate(-180) scale(1 -1)" xlink:href="#h"/><linearGradient id="ai" x1="406.53" y1="43.13" x2="406.53" y2="35.13" gradientTransform="matrix(1, 0, 0, 1, 0, 0)" gradientUnits="userSpaceOnUse"><stop offset="0" stop-color="#a7a9ef"/><stop offset="1" stop-color="#eacff9"/></linearGradient><clipPath id="ak"><rect class="cd" width="800" height="400"/></clipPath><linearGradient id="al" x1="517.02" y1="326.35" x2="517.02" y2="-54.57" gradientTransform="translate(-113.87)" gradientUnits="userSpaceOnUse"><stop offset="0" stop-color="#a68ade"/><stop offset="1" stop-color="#aa8fdc"/></linearGradient><linearGradient id="am" x1="515.7" y1="277.66" x2="515.7" y2="-54.57" gradientTransform="translate(-113.87)" gradientUnits="userSpaceOnUse"><stop offset="0" stop-color="#945eca"/><stop offset="1" stop-color="#955bc0"/></linearGradient><linearGradient id="an" x1="517.02" y1="326.35" x2="517.02" y2="-6.72" xlink:href="#am"/><linearGradient id="ao" x1="515.68" y1="233.7" x2="515.68" y2="-88.56" xlink:href="#am"/><radialGradient id="ap" cx="515.7" cy="91.42" fx="515.7" fy="91.42" r="310.57" gradientTransform="translate(-113.87)" gradientUnits="userSpaceOnUse"><stop offset="0" stop-color="#978cd1"/><stop offset="1" stop-color="#fff"/></radialGradient><linearGradient id="aq" x1="113.87" y1="71.91" x2="917.52" y2="71.91" gradientTransform="translate(-113.87)" gradientUnits="userSpaceOnUse"><stop offset="0" stop-color="#fff"/><stop offset="1" stop-color="#978cd1"/></linearGradient><linearGradient id="ar" y1="107.59" y2="107.59" xlink:href="#aq"/><linearGradient id="as" y1="155.14" x2="920.16" y2="155.14" xlink:href="#aq"/><linearGradient id="at" x1="113.87" y1="118.81" x2="917.52" y2="118.81" gradientTransform="translate(-113.87)" gradientUnits="userSpaceOnUse"><stop offset="0" stop-color="#604fbd"/><stop offset="1" stop-color="#fff"/></linearGradient></defs><g class="bi"><g id="a"/><g id="b"><g id="c"><g><g><g><path class="cb" d="M404,38.98s-.22,1.9,.36,3.65h.01c.12,.06,1.12,.51,3.09,.55,2.11,.04,4-.52,4.42-.37,.41,.14,1.77,2.27,2.27,3.69l.02,.05s.02,.07,.03,.11c.45,1.42,2.12-4.68,2.03-4.96-.07-.24,.06-.92,.32-1.74,.35-1.09,.92-2.44,1.51-3.39,1.04-1.67,1.19-3.2,1.15-3.5-.04-.3-2.15-5.79-3.34-6.54-1.93-1.22-9.25-2.29-10.88,0-.06,.09-.13,.21-.18,.36-.5,1.3-.75,4.61-.69,5.19,.07,.65,.8,1.8,.76,2.08,0,.04-.05,.11-.11,.21-.47,.69-2.23,2.74-2.32,3.93,0,0,.53,.45,1.53,.68Z"/><path class="cc" d="M404.36,42.63h.01c.12,.06,1.12,.51,3.09,.55,2.11,.04,4-.52,4.42-.37,.41,.14-.36,3.03,.14,4.45l2.15-.71,2.5-.23c-.6-.84-.35-4.35-.44-4.63-.07-.24,.06-.92,.32-1.74l-2.28-9.03-6-4.93-3.46,.88c-.5,1.3-.75,4.61-.69,5.19,.07,.65,.8,1.8,.76,2.08,0,.04-.05,.11-.11,.21l.15,.15s.18,.88,.59,1.17c.41,.29,3.7-.31,3.7-.31,0,0,.49,.48,.86,2.43,.24,1.3-.25,2.73-.25,2.73,0,0-.35,1.43-2.02,1.94-1.37,.42-3.46,.16-3.46,.16Z"/><rect class="bu" x="408.26" y="111.46" width="0" height=".01"/><path class="bx" d="M407.77,109.46l-2.03-.81c-.75-8.91,.18-21.68,.21-22.13l4.66,24.07-2.84-1.13Z"/><path class="ca" d="M404.31,31.5s-.02,.68,.42,1.18c0,0,1.02,.08,1.54,.25,.52,.17,1.67,.83,1.67,.83,0,0-.43-.88-.98-1.35s-2.66-.91-2.66-.91Z"/><path class="c`" d="M417.65,46.44l-.9-3.34s-3.8,.5-5.11,1.67c-1.31,1.17-1.8,2.48-1.8,2.48l7.81-.81Z"/><path class="ch" d="M417.65,45.18s2.76,8.09,2.7,10.23c-.07,2.14-3.46,13.82-3.8,15.9-.35,2.07-.41,4.77,0,5.25,.41,.48,2.07,.55,1.76,1.17-.31,.62-2.04,1.59-2.04,1.59,0,0,.77,.35,.29,1.59,0,0-4.56,.69-6.7,1.8-2.14,1.11-3.9,3.59-3.9,3.59,0,0-1.84-1.38-1.98-2.21-.14-.83,.76-1.87,1.04-2.9,.28-1.04-.07-11.06-.21-14.93-.14-3.87,2.14-16.38,2.14-16.38,0,0,2.33-2.64,3.17-3.18,.84-.55,7.54-1.52,7.54-1.52Z"/><rect class="cl" x="408.26" y="111.46" width="0" height=".01"/><path class="bf" d="M416.55,92.14s-.93,12.24,0,19.7c0,0,.13,.48,.34,1.25l-1.72-.68-4.56-1.82-2.84-1.13c-.84-4.61-1.84-18.03-1.82-22.94h0c0-.09,0-.16,0-.23,0-.01,0-.03,0-.04,0-.28,0-.52,.02-.73,0-.26,.07-.51,.17-.74,1.28-3.11,9.4-3.8,10.32-3.86,.05-.01,.08-.01,.08-.01,0,0,1.97,5.32,1.76,9.78l-1.76,1.45Z"/><path class="bt" d="M404,38.98l.76-.28-2.29-.41s.82,.67,1.53,.68Z"/><polygon class="cf" points="403.96 40.05 404.92 40.14 403.98 40.49 403.96 40.05"/><path class="ci" d="M411.78,36.48s1.07-.54,1.63-.12c.56,.43,.09,2.32-.47,2.78,0,0,.7-1.41,.33-2.06-.37-.66-.88-.24-.88-.24,0,0-.05,1.24-.43,1.86-.38,.62-.79,.11-.79,.11,0,0,.1-1.84,.61-2.33Z"/><path class="bw" d="M413.46,39.46s-.35,.51-1.15,.73c-.81,.22-1.11-.28-1.11-.28,0,0,.68,.97,1.32,1.04,.63,.07,1.51-.55,1.51-.55l-.56-.93Z"/><path class="cj" d="M411.19,39.91s.2,.89-.4,1.59c-.6,.7-4.64,1.64-6.43,1.13,0,0,1.81,1.14,7.53,.18,0,0,1.47-1.59,1.25-3.03,0,0-1.03,.97-1.95,.14Z"/><path class="aw" d="M417.17,27.06s0,0,0,0c0,0,0,0,0,0h0Z"/><path class="ay" d="M411.19,58.93s.99,11.77-6.08,20.42l-.25-11.5s2.85-5.81,6.34-8.92Z"/><path class="au" d="M418.34,77.55s-3.79,.18-7.39,1.59c-3.59,1.42-5.81,3.49-5.81,3.49,0,0,5.2-3.25,11.12-3.32,0,0,1.9-.97,2.08-1.77Z"/><path class="av" d="M405.95,86.3s-.86-.83-1.09-1.73c-.23-.9,3.54-3.97,11.69-3.66,0,0-7.43,1.04-10.4,3.87l-.2,1.52Z"/><path class="ba" d="M416.55,111.84s.13,.48,.34,1.25l-1.72-.68s0-.03,0-.05c.78-3.19,.35-19.91,.35-19.91l-2.79-.96,5.57-.8-1.76,1.45s-.93,12.24,0,19.7Z"/><path class="bs" d="M419.82,55.06s-2.04-.7-4.64-2.27c-2.6-1.57-4.49-5.63-4.49-5.63,0,0,5.43-1.3,7.34-.84,0,0,2.17,6.62,1.78,8.73Z"/><path class="ce" d="M405.44,34.89s.17-.75,.37-.91c.2-.16,.47-.25,.93,.12,.46,.37,.48,.78,.48,.78,0,0-1.13,.54-1.78,.01Z"/><path class="be" d="M385.87,60.99l3.72,.97v3.21l-4.65-1.55s1.12-.81,.93-2.63Z"/><path class="bj" d="M387,64.45s.81,1.5,1.35,1.99c.55,.5,4.6,1.78,5.95,2.38,1.35,.61,5.72,2.99,8.38,2.85,0,0,2.59-3.06,4.55-6.93,1.95-3.87,5.54-7.39,5.54-7.39,0,0,1.35-3.94,.35-6.64-1-2.7-3.43-4.08-3.43-4.08,0,0-1.51,1.42-1.87,1.95-.35,.53-1.95,4.26-2.1,5.05-.14,.78-.39,1.83-.57,2.33-.17,.51-3.76,6.69-3.76,6.69,0,0-.71-.21-1.03,0s-.32,.69-.32,.69c0,0-4.41-.19-6.61-.51-2.2-.32-5.86-1.74-5.86-1.74l-.58,.27s.46,1.94,0,3.11Z"/><path class="b`" d="M400.37,62.64s1.92,.75,2.84,2.74l-3.16-2.05,.32-.68Z"/><path class="bb" d="M387,64.45s.81,1.5,1.35,1.99c.55,.5,4.6,1.78,5.95,2.38,1.35,.61,5.72,2.99,8.38,2.85,0,0-6.57-4.3-7.99-4.55-1.42-.25-5.97-1.74-5.97-1.74l-1.14-4.3-.58,.27s.46,1.94,0,3.11Z"/><path class="cg" d="M404.65,27.46l-.49,2.79s-.99-2.27-.78-3.99c.21-1.72,3.45-1.6,3.45-1.6,0,0-1.9-.81-3.02,.78,0,0,.75-2.22,2.33-1.93s2.55,.8,5.82,1.3c3.27,.5,5.32,.25,6.96,1.17,1.64,.92,1.72,1.93,1.72,1.93l-.69-.55s.86,2.98,.69,4.91c-.17,1.93-4.41,7.51-4.38,9.4,0,0-1.9-.12-2.78-2.22,0,0,1.25-1.85,.93-3.44-.32-1.59-1.78-1.71-2.88-.72l-.67,.72s-.05-2.58-.44-3.39c-.39-.81-1.94-2.29-3.59-2.74-1.13-.31-2.24,.39-2.24,.39,0,0-.11-2.25,.07-2.83Z"/></g><g><path class="by" d="M385.32,63.58s-2.28-.16-3.52-.52c-1.24-.36-2.22-1.86-2.22-1.86,0,0-1.71,.72-2.54,.78-.83,.05-.97-.14-1.02-.29-.05-.16,1.35-1.41,1.35-1.41,0,0-1.22,.74-1.75,1.1-.53,.36-1.38,.17-1.57,.05s0-.53,0-.53c0,0-.41,.28-.71,.31-.29,.03-.52-.19-.59-.48s2.24-2.69,2.47-2.9c0,0-1.21-.36-1.55-.4-.34-.03-.91-.07-1.71-.43s-1.12-.91-1.1-1.12c.02-.21,3.26,.4,3.9,.48,.64,.09,3.64,1.31,5.14,2,1.5,.69,5.97,2.64,5.97,2.64,0,0,.36,1.64-.55,2.59Z"/><path class="bv" d="M378.4,61.64l1.3-1.06s.6,2.26,2.45,2.41c1.74,.14,3.07-2.27,3.07-2.27l.65,.28s.25,1.55-.55,2.59c0,0-2.04,.03-3.52-.52s-2.25-1.73-2.25-1.73l-1.15,.31Z"/><path class="bg" d="M374.05,60.89l1.87-1.63s-2.21,1.03-2.58,1.94c0,0,.41-.05,.71-.31Z"/><path class="ck" d="M375.23,57.82l.54-.5-2.1,.1s1.19,.2,1.55,.4Z"/><path class="bh" d="M378.9,59.26l-1.66,1.09s.86-1.11,1.16-1.19,.5,.1,.5,.1Z"/></g></g><path class="bc" d="M404.22,35.13s.5,.08,.69,.22c1.75,1.27,3.86,.57,5.16,.51,.28-.01-.44,1.56-.24,3.79,.06,.65,.85,3.09,.85,3.09,0,0-5.57,.82-6.57,.08-1-.74-2.25-4.19-1.56-5.39,.56-.97,1.65-2.3,1.65-2.3Z"/></g></g><g id="aj"><g class="bd"><g><polygon class="bp" points="806.29 326.35 0 2.4 0 -54.57 803.65 268.74 806.29 326.35"/><polygon class="bn" points="0 -54.57 0 -47.38 803.65 277.66 803.65 268.74 0 -54.57"/><polygon class="bo" points="0 2.4 0 -6.72 806.29 315.82 806.29 326.35 0 2.4"/><polygon class="br" points="0 -88.56 803.62 230.68 803.62 233.7 0 -85.9 0 -88.56"/><polygon class="bq" points="0 -85.9 803.62 233.7 803.65 268.74 0 -54.57 0 -85.9"/><polygon class="bk" points="0 -88.56 0 -87.64 803.65 232.37 803.62 230.68 0 -88.56"/><polygon class="bl" points="0 -54.57 0 -53.87 803.62 269.74 803.65 268.74 0 -54.57"/><polygon class="bm" points="0 -6.72 0 -5.12 806.29 316.99 806.29 315.82 0 -6.72"/><path class="ax" d="M0-47.38v2.94S657.56,221.16,803.62,285l.03-7.34L0-47.38Z"/></g></g></g></g></g></svg>