<?xml version="1.0" encoding="UTF-8"?><svg xmlns="http://www.w3.org/2000/svg" xmlns:xlink="http://www.w3.org/1999/xlink" viewBox="0 0 800 400"><defs><style>.aw{fill:#95f2fb;}.ax{fill:url(#t);}.ay{fill:#a8eef6;}.b`{fill:#96f2fb;}.ba{fill:#8af5fe;}.bb{fill:#fff;}.bc{fill:#8ff4fc;}.bd{fill:#91f3fc;}.be{fill:#afecf4;}.bf{fill:url(#r);}.bg{fill:#86f6ff;}.bh{fill:#a9eef6;}.bi{fill:url(#ai);}.bj{fill:url(#av);}.bj,.bk,.bl,.bm{mix-blend-mode:soft-light;opacity:.64;}.bn{fill:url(#an);}.bn,.bo,.bp,.bq,.br,.bs,.bt,.bu,.bv,.bw,.bx,.by{mix-blend-mode:multiply;}.bn,.bo,.bp,.bq,.br,.bs,.bt,.bv,.bw,.bx,.by{opacity:.9;}.c`{fill:#acedf5;}.ca{fill:#8ef4fd;}.cb{fill:#89f5fe;}.cc{fill:#abedf5;}.cd{fill:#94f2fb;}.ce{fill:url(#y);}.bo{fill:url(#am);}.cf{fill:url(#l);}.cg{fill:#88f5fe;}.bp{fill:url(#u);}.ch{fill:#a1f0f8;}.ci{fill:#99f1fa;}.cj{fill:#9cf1f9;}.ck{fill:#90f3fc;}.cl{fill:url(#ah);}.cm{fill:#a3eff7;}.cn{isolation:isolate;}.co{fill:url(#v);}.bk{fill:url(#au);}.cp{clip-path:url(#ag);}.cq{fill:url(#a`);}.cr{fill:url(#as);}.cs{fill:url(#m);}.bq{fill:url(#aj);}.ct{fill:#aeecf5;}.br{fill:url(#aq);}.bs{fill:url(#at);}.cu{fill:url(#f);}.cv{fill:url(#ae);}.cw{fill:#a4eff7;}.cx{fill:#bf5b71;}.cy{fill:#98f1fa;}.d`{fill:url(#p);}.da{fill:#9ff0f8;}.db{fill:url(#g);}.dc{fill:#92f3fc;}.dd{fill:url(#ad);}.de{fill:url(#ab);}.bt{fill:url(#ao);}.df{fill:url(#i);}.dg{fill:#93f3fb;}.dh{fill:#8bf5fd;}.bu{fill:url(#af);}.di{fill:#9df1f9;}.dj{fill:#8cf4fd;}.dk{fill:#9ef0f9;}.dl{fill:#97f2fa;}.dm{clip-path:url(#d);}.bl{fill:url(#ar);}.dn{fill:url(#h);}.do{fill:#a7eef6;}.dp{fill:url(#e);}.bv{fill:url(#s);}.dq{fill:none;}.dr{fill:#a0f0f8;}.bw{fill:#797295;}.ds{fill:#85f6ff;}.dt{fill:url(#x);}.du{fill:#adedf5;}.bm{fill:url(#al);}.dv{fill:url(#aa);}.bx{fill:url(#ak);}.dw{fill:#9bf1fa;}.dx{fill:#a5eff7;}.dy{fill:url(#n);}.e`{fill:url(#ac);}.ea{fill:url(#w);}.eb{fill:#b0ecf4;}.ec{fill:#a6eef7;}.ed{fill:url(#j);}.ee{fill:url(#o);}.ef{fill:url(#q);}.eg{fill:#8df4fd;}.eh{fill:#87f6fe;}.ei{fill:url(#k);}.ej{fill:#aaedf6;}.ek{fill:#a2eff8;}.by{fill:url(#ap);}</style><clipPath id="d"><rect class="dq" width="800" height="400"/></clipPath><linearGradient id="e" x1="234.72" y1="300.59" x2="234.72" y2="294.02" gradientTransform="matrix(1, 0, 0, 1, 0, 0)" gradientUnits="userSpaceOnUse"><stop offset="0" stop-color="#f48781"/><stop offset="1" stop-color="#ef7a8e"/></linearGradient><linearGradient id="f" x1="225.68" y1="297.81" x2="225.68" y2="277.6" xlink:href="#e"/><linearGradient id="g" x1="213.53" y1="321.84" x2="213.53" y2="269.55" gradientTransform="matrix(1, 0, 0, 1, 0, 0)" gradientUnits="userSpaceOnUse"><stop offset="0" stop-color="#241059"/><stop offset="1" stop-color="#5b1a72"/></linearGradient><linearGradient id="h" x1="217.75" y1="357.33" x2="217.75" y2="286.35" gradientTransform="matrix(1, 0, 0, 1, 0, 0)" gradientUnits="userSpaceOnUse"><stop offset=".02" stop-color="#ffc2a9"/><stop offset="1" stop-color="#ff9595"/></linearGradient><linearGradient id="i" x1="203.35" y1="326.76" x2="233.64" y2="326.76" xlink:href="#e"/><linearGradient id="j" x1="233.64" y1="361.19" x2="233.64" y2="327.05" gradientTransform="matrix(1, 0, 0, 1, 0, 0)" gradientUnits="userSpaceOnUse"><stop offset="0" stop-color="#b9acf4"/><stop offset="1" stop-color="#e1d1f5"/></linearGradient><linearGradient id="k" x1="343.95" y1="257.63" x2="343.95" y2="254.06" gradientTransform="matrix(1, 0, 0, 1, 0, 0)" gradientUnits="userSpaceOnUse"><stop offset="0" stop-color="#151047"/><stop offset="1" stop-color="#2e1a5b"/></linearGradient><linearGradient id="l" x1="348.46" y1="255.33" x2="348.46" y2="246.58" xlink:href="#k"/><linearGradient id="m" x1="270.14" y1="237.05" x2="270.14" y2="189.07" xlink:href="#k"/><linearGradient id="n" x1="305.23" y1="285.24" x2="305.23" y2="184.06" xlink:href="#h"/><linearGradient id="o" x1="303.06" y1="276.43" x2="303.06" y2="209.32" xlink:href="#e"/><linearGradient id="p" x1="315.97" y1="240.84" x2="315.97" y2="230.71" xlink:href="#k"/><linearGradient id="q" x1="282.24" y1="230.71" x2="282.24" y2="225.1" gradientTransform="matrix(1, 0, 0, 1, 0, 0)" gradientUnits="userSpaceOnUse"><stop offset="0" stop-color="#9d4277"/><stop offset="1" stop-color="#4a1059"/></linearGradient><linearGradient id="r" x1="318.51" y1="435.42" x2="318.51" y2="274.1" gradientTransform="matrix(1, 0, 0, 1, 0, 0)" gradientUnits="userSpaceOnUse"><stop offset="0" stop-color="#6d1a68"/><stop offset="1" stop-color="#882251"/></linearGradient><linearGradient id="s" x1="317.59" y1="397.58" x2="317.59" y2="333.77" gradientTransform="matrix(1, 0, 0, 1, 0, 0)" gradientUnits="userSpaceOnUse"><stop offset="0" stop-color="#ccb8ff"/><stop offset="1" stop-color="#af8bc2"/></linearGradient><linearGradient id="t" x1="309.46" y1="386.89" x2="279.68" y2="305.06" gradientTransform="matrix(1, 0, 0, 1, 0, 0)" gradientUnits="userSpaceOnUse"><stop offset="0" stop-color="#6d1a68"/><stop offset="1" stop-color="#ba3b61"/></linearGradient><linearGradient id="u" x1="336.37" y1="341.56" x2="336.37" y2="277.6" xlink:href="#s"/><linearGradient id="v" x1="303.74" y1="336.44" x2="289.8" y2="298.13" gradientTransform="matrix(1, 0, 0, 1, 0, 0)" gradientUnits="userSpaceOnUse"><stop offset="0" stop-color="#a23190"/><stop offset="1" stop-color="#ba3b61"/></linearGradient><linearGradient id="w" x1="345.5" y1="433.85" x2="345.5" y2="286.35" gradientTransform="matrix(1, 0, 0, 1, 0, 0)" gradientUnits="userSpaceOnUse"><stop offset="0" stop-color="#382763"/><stop offset="1" stop-color="#5b38ae"/></linearGradient><linearGradient id="x" x1="287.98" y1="243.35" x2="287.98" y2="236.78" xlink:href="#j"/><linearGradient id="y" x1="286.1" y1="243.35" x2="286.1" y2="239.19" xlink:href="#k"/><linearGradient id="a`" x1="287.26" y1="239.71" x2="287.26" y2="232.77" gradientTransform="matrix(1, 0, 0, 1, 0, 0)" gradientUnits="userSpaceOnUse"><stop offset="0" stop-color="#db5f69"/><stop offset="1" stop-color="#dc505e"/></linearGradient><linearGradient id="aa" x1="286.88" y1="242.53" x2="286.88" y2="235.77" xlink:href="#k"/><linearGradient id="ab" x1="325.74" y1="247.05" x2="325.74" y2="233.48" xlink:href="#a`"/><linearGradient id="ac" x1="282.13" y1="261.51" x2="282.13" y2="257.63" xlink:href="#e"/><linearGradient id="ad" x1="295.45" y1="264.38" x2="295.45" y2="263.48" xlink:href="#e"/><linearGradient id="ae" x1="328.96" y1="257.55" x2="276.27" y2="257.55" gradientTransform="matrix(1, 0, 0, 1, 0, 0)" gradientUnits="userSpaceOnUse"><stop offset="0" stop-color="#b0ecf4"/><stop offset="1" stop-color="#ebfeff"/></linearGradient><linearGradient id="af" x1="328.96" y1="254.83" x2="294.86" y2="254.83" gradientTransform="matrix(1, 0, 0, 1, 0, 0)" gradientUnits="userSpaceOnUse"><stop offset="0" stop-color="#b0ecf4"/><stop offset="1" stop-color="#cdfeff"/></linearGradient><clipPath id="ag"><path class="dq" d="M279.45,248.72c2.1,.14,4.21,.15,6.3,.05,2.09-.12,4.19-.34,6.15-1.01,1.93-.7,3.76-1.82,5.55-2.88,.9-.54,1.78-1.12,2.64-1.72,.86-.6,1.75-1.18,2.52-1.89-1.48,1.51-3.21,2.75-4.96,3.93-1.78,1.15-3.57,2.26-5.59,3.03-2.05,.66-4.18,.88-6.3,.92-2.12,.03-4.23-.11-6.32-.43Z"/></clipPath><linearGradient id="ah" x1="309.52" y1="238.69" x2="309.52" y2="235.59" xlink:href="#ae"/><linearGradient id="ai" x1="319.05" y1="259.77" x2="319.05" y2="174.05" xlink:href="#g"/><linearGradient id="aj" x1="316.51" y1="258.57" x2="316.51" y2="200.09" xlink:href="#s"/><linearGradient id="ak" x1="283.7" y1="205.75" x2="283.7" y2="187.72" xlink:href="#s"/><linearGradient id="al" x1="298.2" y1="222.82" x2="298.2" y2="174.06" gradientTransform="matrix(1, 0, 0, 1, 0, 0)" gradientUnits="userSpaceOnUse"><stop offset="0" stop-color="#ff9595"/><stop offset=".98" stop-color="#ffc2a9"/></linearGradient><linearGradient id="am" x1="310.05" y1="330.28" x2="310.05" y2="278.22" xlink:href="#s"/><linearGradient id="an" x1="317.2" y1="320.24" x2="317.2" y2="305.27" xlink:href="#s"/><linearGradient id="ao" x1="286.68" y1="370.09" x2="286.68" y2="350.36" xlink:href="#s"/><linearGradient id="ap" x1="267.98" y1="392.91" x2="267.98" y2="352.57" xlink:href="#s"/><linearGradient id="aq" x1="310.69" y1="352.57" x2="310.69" xlink:href="#s"/><linearGradient id="ar" x1="337.66" y1="316.52" x2="337.66" y2="286.25" xlink:href="#al"/><linearGradient id="as" x1="190.7" y1="290.25" x2="198.29" y2="290.25" gradientTransform="matrix(1, 0, 0, 1, 0, 0)" gradientUnits="userSpaceOnUse"><stop offset=".02" stop-color="#ffc2a9"/><stop offset="1" stop-color="#ffae95"/></linearGradient><linearGradient id="at" x1="222.52" y1="347.22" x2="240.98" y2="347.22" xlink:href="#s"/><linearGradient id="au" x1="243.45" y1="346.71" x2="280.96" y2="346.71" xlink:href="#al"/><linearGradient id="av" x1="291.69" y1="333.28" x2="317.6" y2="333.28" xlink:href="#al"/></defs><g class="cn"><g id="a"/><g id="b"><g id="c"><g class="dm"><g><path class="dp" d="M232.34,296.11s.9-2.43,2.82-2.05c1.91,.38,2.55,4.58,1.28,6.24-1.28,1.66-4.09-4.19-4.09-4.19Z"/><path class="cu" d="M219.35,283.01s-.77-2.38,0-3.57c.77-1.19,3.06-2.21,3.91-1.7,.85,.51,1.19,9.78,1.19,9.78l1.53,3.23s.51-2.89,2.38-3.49c1.87-.6,3.57,.94,3.91,3.49,.34,2.55-1.02,6.21-1.02,6.21l-7.57,.85-4.34-14.8Z"/><path class="db" d="M183.9,279.92s-.68,2.3,0,5.32l44.74,36.6h2.21l12.59-13.68s-20.93-24.5-39.64-38.62c0,0-12.59,3.91-19.91,10.38Z"/><path class="bb" d="M185.65,280.65s34.83,29.91,43.51,36.39l13.18-10.15s-17.52-20.37-37.93-35.81c0,0-7.15,1.02-18.76,9.57Z"/><path class="dn" d="M244.8,340.49s-2.32,13.32-3.91,16.84c0,0-9.97-11.37-16.2-18.63-1.86-2.18-3.39-3.99-4.22-5.01-2.84-3.53-12.59-10.6-17.13-14.9-.07-.07-.11-.09-.11-.09-1.1-1.05-1.89-1.93-2.15-2.53-.79-1.8-.66-5.35-.62-8.66h0c.04-2.36,.01-4.57-.4-5.98-.28-.94-1.17-2.3-2.28-3.81t-.01-.01c-2.92-3.95-7.42-8.89-7.06-10.13,.5-1.7,7.14-1.86,10.88,1.02,2.03,1.58,2.96,4.51,3.35,7.1h0c.34,2.18,.3,4.12,.22,4.81-.16,1.54,1.2,5.45,2.05,6.13,.85,.69,5.27,.69,10.37,4.26,1.6,1.12,3.31,2.48,4.89,3.81l.13,.12c2.94,2.46,5.41,4.84,6.05,5.44l.16,.15,4.82-1.59v.05c-.16,.48-1.44,4.51-4.31,8.35l1.98,1.7,13.5,11.57Z"/><path class="df" d="M233.63,318.87c-.15,.48-1.43,4.51-4.3,8.35l1.98,1.7-2.15,6.98-4.46,2.8c-1.86-2.18-3.39-3.99-4.22-5.01-2.84-3.53-12.59-10.6-17.13-14.9,1.1,.86,10.05,7.87,14.4,8.26,4.65,.43,7.52-4.26,7.93-6.72,.36-2.17-2.41-4.89-3.07-5.51l6.05,5.44,.16,.15,4.82-1.59v.05Z"/><path class="ed" d="M230.43,327.05s-8.68,2.08-7.91,13.12l20.16,21.02,2.13-20.7s-12.08-9.53-14.38-13.44Z"/><path class="ei" d="M336.94,256.7s4.59,1.62,14.04,.6c0,0-2.72-.34-6.12-3.23,0,0-6.55,.94-7.91,2.64Z"/><path class="cf" d="M342.85,252.83s4.85,3.57,11.23,2.17c0,0-3.19-2.81-3.7-8.42,0,0-6.63,3.7-7.53,6.25Z"/><path class="cs" d="M286.15,189.07s-9.87,4.76-20.76,8c-10.89,3.23-13.27,10.08-11.91,19.84,1.36,9.76,15.82,20.31,26.54,20.14,10.72-.17,6.12-47.98,6.12-47.98Z"/><path class="dy" d="M341.95,283.2l-19.01,2.04c-.35-3.41-.79-7.5-1.2-11.24-.39-3.54-.75-6.77-.98-8.79-.15-1.36-.25-2.18-.25-2.18,0,0-12.38,13.4-17.64,13.4h-.08c-5.24-.12-7.92-5.73-7.92-5.73l-3.32-.65c-.35-2.4,1.44-3.55,1.64-3.68-3.44,1.13-6.36,.62-6.36,.62-1.01-3.05-3.32-6.25-3.32-6.25-2.8,.89-6.68,.37-7.1-.9-.81-2.49,3.21-6.47,3.06-12.22-.03-1.46-.34-3.05-1.06-4.74-1.47-3.43-5.46-8.23-8.1-14.72-.6-1.53-1.13-3.18-1.46-4.93-.73-3.74-.22-8.82,.66-13.52,1.26-6.84,3.28-12.89,3.28-12.89,16.34-15.57,48.91-16.83,59.72-4.11,12.68,14.94,7.5,42.63,4.95,55.43-.65,3.18-1.12,5.44-1.12,6.35,0,1.19,.36,3.65,.91,6.67,1.61,8.71,4.7,22.04,4.7,22.04Z"/><path class="ee" d="M337.45,248.14c-.65,3.18-1.12,5.44-1.12,6.36,0,1.19,.36,3.65,.92,6.67,.01,.5-.04,4.44-3.3,6.52-2.57,1.63-9,4.77-12.22,6.32-.65-5.93-1.23-10.96-1.23-10.96,0,0-12.38,13.4-17.64,13.4h-.08s10.43-4.19,12.72-10.65c2.3-6.46,1-14.48-.03-14.83-1.02-.34-10.61,2.26-12.99-3.35-1.96-4.64,0-15.57,0-15.57-2.56-.08-6.13,2.63-6.13,2.63-4.79,3.92-10.9,11.92-10.9,11.92-4.34-3.65-11.02-15.87-11.02-15.87l-4.13-2.55c-.61-1.54-1.13-3.18-1.47-4.93-.73-3.74-.22-8.82,.66-13.52l.23-.39,26.37,6.21,34.96,6.03,6.55,16.08-.16,10.49Z"/><path class="d`" d="M311.46,231.14s3.45,3.96,4.34,9.7c0,0,1.85-5.84,4.69-10.13l-9.03,.43Z"/><path class="ef" d="M271.39,225.91s1.28,3.6,3.06,4.8c0,0,5.2-2.8,9.23-3.48,4.55-.77,9.4-.43,9.4-.43,0,0-6.55-1.75-11.19-1.7-3.47,.04-9.1,1.57-10.51,.81Z"/><path class="bf" d="M350.97,274.44s-.51,15.69,0,22.83c.51,7.15,3.57,23.82,5.27,38.79,1.7,14.97,3.74,56.48,0,99.36h-77.58s12.84-36.75,14.42-53.76c1.57-17.01-3.09-22.48-3.43-26.9-.34-4.42,10.11-17.67,8.4-24.48s-9.53-10.55-14.29-6.46c0,0,8.2-18.71,21.46-31.3,13.25-12.59,35.03-20.15,45.75-18.07Z"/><path class="bv" d="M299.09,387.38s26.53,11.81,31.13,10.02,5.87-63.63,5.87-63.63l-37,53.61Z"/><path class="ax" d="M336.93,332.33c-3.52,6.25-33.56,52.85-42.36,59.69-.54,.4-1,.67-1.36,.78-6.38,1.79-39.81-20.16-41.85-21.68-1.51-1.13-5.78-.59-7.92-.24-.77,.13-1.27,.24-1.27,.24-8.43-22.72,0-36.24,0-36.24,0,0,5.36,5.1,10.96,8.67,5.6,3.58,27.83,13.02,27.83,13.02,0,0,0-.03-.01-.07,0-.04-.01-.11-.03-.18,0-.04-.01-.08-.01-.13,0-.04-.01-.09-.01-.15-.08-1.02,.07-3.33,2.36-5.68,3.07-3.15,7.66,0,7.66,0,7.39-7.49,16.07-32.32,16.32-35.14,.26-2.8,0-9.95,0-9.95,3.57-7.39,13.24-15.06,13.24-15.06,6.86,.26,17.39,5.62,19.42,11.23,2.05,5.62,.77,24.24-2.98,30.88Z"/><path class="bp" d="M327.15,286.5s13.95-.36,19.91,1.21l3.91-10.1s-.82,19.78,1.21,29.51c2.03,9.73,4.6,34.44,4.6,34.44,0,0-7.76-24.61-12.83-31.98-5.06-7.37-15.54-13.89-15.54-13.89,0,0-3.65-4.59-12.45-1.47l7.27-5.28,3.91-2.44Z"/><path class="co" d="M289.66,341.56s-6.65-7.88-5.89-17.75c0,0,6.62-20.84,21.46-31.3,0,0-6.16,7.15-10.76,19.91-4.59,12.76-4.81,29.14-4.81,29.14Z"/><path class="ea" d="M374.96,391.7c-.86,15.48-12.67,36.69-18.59,42.16l.46-4.44,.77-7.6s10.03-20.73,11.91-28.9c0,0-2.21-27.14-10.37-51.34-1.62-4.79-3.23-9.35-4.85-13.59-2.09-5.51-4.16-10.49-6.24-14.86-.08-.19-.13-.31-.16-.35h0c-4.35-9.12-8.62-15.42-12.74-17.71-5.33-2.96-12.32-4.74-19.18-.84,0,0,3.87-4.51,9.15-7.88,0,0,10.2,.38,14.12,3.87,3.91,3.49,19.06,23.22,23.81,38.53,4.77,15.31,12.77,47.48,11.92,62.95Z"/><path class="dt" d="M283.7,241.4s.58,1.18,2.37,1.95c0,0,3.97-2.92,6.2-6.57,0,0-2.93,1.82-8.56,4.62Z"/><path class="ce" d="M283.26,240.84s1.19,2.25,2.81,2.51l2.88-2.51-.96-1.64s-3.52,.72-4.72,1.64Z"/><path class="cq" d="M282.83,239.69s-1.39-1.66-1.87-6.63c0,0,6.68-1.58,12.59,2.72,0,0-6.29,4.3-10.72,3.92Z"/><path class="dv" d="M282.83,239.69l-2.62,2.85s7.3-1.74,13.34-6.76c0,0-7.06,3.58-10.72,3.92Z"/><path class="cx" d="M303.47,276.43s5.47-2.01,10.99-9.25c6.95-9.12,8-13.32,8-13.32l7.76,.75s-13.97,13.84-19.05,17.54c-4.9,3.56-5.59,3.97-7.69,4.27Z"/><path class="de" d="M319.05,240.84s3-6,7.42-7.36c0,0,6.1,.88,5.95,7.79,0,0-.77-4.94-4.47-6.43,0,0-1.91,.65-3.79,2.53,0,0,2.21,1.68,3.02,4.23,.81,2.55-.34,5.44-.34,5.44,0,0,.13-2-.51-3.15,0,0-.3,1.79-2.21,2.08s-5.15-1.87-5.08-5.15Z"/><path class="cx" d="M286.63,266.44s1.18-.61,3.52-.65c.97-.02,2.36,.04,3.64-.64s1.46-1.51,1.46-1.51c0,0,.16,.16-.8,1.73-1.02,.57-1.24,.99-1.24,.99,0,0-2.38,1.23-5.23,1.57,0,0-1.07-.23-1.35-1.49Z"/><path class="e`" d="M277.01,260.49s2.08,.49,5.23-.72,5.02-2.14,5.02-2.14c0,0-1.53,1.96-3.74,3.11,0,0-3.44,1.89-6.51-.25Z"/><path class="cx" d="M283.7,260.17s.43-1.09,1.99-1.81l1.56-.72s-1.84,2.21-3.56,2.53Z"/><path class="dd" d="M294.23,263.64s1.47-.36,2.42,0l-1.4,.74-1.03-.74Z"/><g><path class="cv" d="M328.96,255.85s-5.75,6.5-12.25,12.3c-4.64,4.14-9.65,7.92-13.24,8.76,0,0-5.03-1.25-10.81-3.78-2.43-1.05-4.98-2.34-7.36-3.85-1.86-1.18-5.83-4.9-5.83-4.9-1.67-1.65-2.27-2.54-3.06-4.54-.96-2.43,3.21-6.47,3.06-12.22h0s6.85,1.54,12.52-1.04c1.01-.46,1.96-.99,2.85-1.58h0c4.11-2.68,6.84-6.22,6.88-6.78,.06-.68,4.41,10.58,8.04,13.45,3.63,2.86,19.18,4.18,19.18,4.18Z"/><path class="bb" d="M280.22,248.72s-1.49,7.21-2.61,8.91c-1.11,1.7,1.21,4.09,2.61,4.59s3.04-2.13,3.04-4c0-2.37-3.04-9.5-3.04-9.5Z"/><path class="bu" d="M328.96,255.85s-5.75,6.5-12.25,12.3c-.07,.06-.14,.11-.2,.17-1.99,1.82-11.07,5.01-7.07,1.74,4-3.28,5.39-13.84,3.84-12.51-1.56,1.32-9.22,4.78-8.05,2.02,1.17-2.76-.73-11.24-2.17-12.99-1.4-1.71-7.86-1.59-8.2-1.58,4.11-2.68,6.84-6.22,6.88-6.78,.06-.68,4.41,10.58,8.04,13.45,3.63,2.86,19.18,4.18,19.18,4.18Z"/><g class="cp"><rect class="eb" x="279.45" y="241.27" width=".51" height="7.92"/><rect class="be" x="279.96" y="241.27" width=".54" height="7.92"/><rect class="ct" x="280.51" y="241.27" width=".54" height="7.92"/><rect class="du" x="281.05" y="241.27" width=".54" height="7.92"/><rect class="c`" x="281.59" y="241.27" width=".54" height="7.92"/><rect class="cc" x="282.14" y="241.27" width=".54" height="7.92"/><rect class="ej" x="282.68" y="241.27" width=".54" height="7.92"/><rect class="bh" x="283.23" y="241.27" width=".54" height="7.92"/><rect class="ay" x="283.77" y="241.27" width=".54" height="7.92"/><rect class="do" x="284.31" y="241.27" width=".54" height="7.92"/><rect class="ec" x="284.86" y="241.27" width=".54" height="7.92"/><rect class="dx" x="285.4" y="241.27" width=".54" height="7.92"/><rect class="cw" x="285.95" y="241.27" width=".54" height="7.92"/><rect class="cm" x="286.49" y="241.27" width=".54" height="7.92"/><rect class="ek" x="287.03" y="241.27" width=".54" height="7.92"/><rect class="ch" x="287.58" y="241.27" width=".54" height="7.92"/><rect class="dr" x="288.12" y="241.27" width=".54" height="7.92"/><rect class="da" x="288.67" y="241.27" width=".54" height="7.92"/><rect class="dk" x="289.21" y="241.27" width=".54" height="7.92"/><rect class="di" x="289.75" y="241.27" width=".54" height="7.92"/><rect class="cj" x="290.3" y="241.27" width=".54" height="7.92"/><rect class="dw" x="290.84" y="241.27" width=".54" height="7.92"/><rect class="ci" x="291.39" y="241.27" width=".54" height="7.92"/><rect class="cy" x="291.93" y="241.27" width=".54" height="7.92"/><rect class="dl" x="292.47" y="241.27" width=".54" height="7.92"/><rect class="b`" x="293.02" y="241.27" width=".54" height="7.92"/><rect class="aw" x="293.56" y="241.27" width=".54" height="7.92"/><rect class="cd" x="294.11" y="241.27" width=".54" height="7.92"/><rect class="dg" x="294.65" y="241.27" width=".54" height="7.92"/><rect class="dc" x="295.19" y="241.27" width=".54" height="7.92"/><rect class="bd" x="295.74" y="241.27" width=".54" height="7.92"/><rect class="ck" x="296.28" y="241.27" width=".54" height="7.92"/><rect class="bc" x="296.83" y="241.27" width=".54" height="7.92"/><rect class="ca" x="297.37" y="241.27" width=".54" height="7.92"/><rect class="eg" x="297.91" y="241.27" width=".54" height="7.92"/><rect class="dj" x="298.46" y="241.27" width=".54" height="7.92"/><rect class="dh" x="299" y="241.27" width=".54" height="7.92"/><rect class="ba" x="299.55" y="241.27" width=".54" height="7.92"/><rect class="cb" x="300.09" y="241.27" width=".54" height="7.92"/><rect class="cg" x="300.63" y="241.27" width=".54" height="7.92"/><rect class="eh" x="301.18" y="241.27" width=".54" height="7.92"/><rect class="bg" x="301.72" y="241.27" width=".54" height="7.92"/><rect class="ds" x="302.27" y="241.27" width=".35" height="7.92"/></g><path class="cl" d="M301.97,238.69l-.25-.43c.08-.05,8.41-4.87,15.6-1.43l-.22,.45c-6.95-3.32-15.05,1.36-15.13,1.41Z"/></g><g><path class="bi" d="M355.26,247.41c.62-.39,9.19-5.7,10.34-12.75,.97-5.97-2.91-8.86-4.38-9.72-.08-.05-.15-.09-.22-.12,.07,.07,.15,.16,.22,.28h0c.24,.42,.44,1.17,.39,2.57-.07,1.93-.65,5.08-2.32,10.24-.93,2.9-2.44,5.63-4.35,8.14-.13,.18-.27,.35-.4,.53-1.85,2.32-4.03,4.42-6.41,6.21-3.45,2.61-7.31,4.62-11.17,5.8h-.01c-3.25,1-6.49,1.4-9.47,1.1-11.37-1.16-16.51-7.26-16.82-7.65,4.27,3.22,14.75,2.67,19.17-1.08,4.42-3.74,6.46-10.84,4.08-16.3-.88-2.02-2.01-3.31-3.27-4.11-2.16-1.37-4.7-1.31-7.06-.98-3.74,.51-5.95,5.44-22.96,1.02-14.28-3.72-24.94-11.25-29.21-16.09h-.01c-.82-.93-1.41-1.76-1.74-2.45-2.05-4.26-1.9-10.57-1.9-10.57,.55-2.65,1.25-5.83,7.38-9.27h.03c1.21-.7,2.65-1.4,4.35-2.1l.71-.31,.26-.11c1.36-.59,2.76-1.25,4.16-1.95,8.9-4.48,17.85-10.56,17.85-10.56,13.27-6.64,25.68-1.2,30.95,2.55,4.46,3.17,7.21,9.95,15.02,20.38,0,0,.22,.3,.59,.79,.07,.08,.13,.18,.2,.27,1.24,1.62,2.6,3.31,4.09,5.1,11.74,13.94,16.67,21.6,16.67,21.6,2.81,14.21-13.79,19.26-14.76,19.54Z"/><path class="bq" d="M361.62,227.66c-.07,1.93-.65,5.08-2.32,10.24-.93,2.9-2.44,5.63-4.35,8.14l-6.82,6.73c-3.45,2.61-7.31,4.62-11.17,5.8,2.64-1.8,5.59-4.61,7.54-8.81,4.34-9.31-4.85-19.06-4.85-19.06,0,0-4.82-1.6-9.02-.16-2.16-1.37-4.7-1.31-7.06-.98-3.74,.51-5.95,5.44-22.96,1.02-14.28-3.72-24.94-11.25-29.21-16.09,.55,.28,17.35,8.38,25.25,10.01,8.04,1.66,27.18-2.17,32.03-3.19,4.85-1.01,16.81-.12,16.81-.12,0,0-14.07-3.7-25.01-5.1-10.56-1.35-24.98-7.95-25.97-8.4,.75,.24,9.41,2.99,17.71,4.44,8.67,1.54,28.32-1.66,30.61-2.8,0,0-11.81-2.79-18.33-4.84,.69,.08,9.05,1.08,15.65-.01,6.9-1.14,8.3-4.38,8.3-4.38,0,0,.22,.3,.59,.79,.07,.08,.13,.18,.2,.27,2.22,3.02,8.49,11.57,10.05,14.8,1.72,3.53,1.9,8.07,1.93,8.97v.16h0l.39,2.57Z"/><path class="bx" d="M275.14,192.2s1.02,3.21,5.08,7.29,12.05,6.25,12.05,6.25c0,0-6.45-4.85-7.98-8.55-1.53-3.7,.36-9.48,.36-9.48l-9.51,4.48Z"/><path class="bm" d="M274.47,215.94s9.03,4.94,16.48,6.88l-.54-2.53s3.32-1.15,11.1-2.68c7.78-1.53,9.95-2.42,9.95-2.42,0,0-13.14-5.38-16.01-7.09,0,0,6.19,.84,11.55-.95l-1.77-.51,8.53-8.04h8.17s-8.29-1.15-10.46-2.68l2.04-.77s4.59-6.64,5.55-12.5c.96-5.87-2.21-8.58-2.21-8.58,0,0-6.85-.26-10.92,1.63,0,0,3.12,6.61,1.97,12.01-1.15,5.4-4.83,10.72-4.83,10.72,0,0-6.02,.41-9.97-1.12l4.21,2.77s-7.81,1.51-11.82-1.65c0,0,3.16,4.79,7.6,7.3,0,0-6.95-.93-11.61-5.65,0,0,3.32,3.99,6.51,6.16l-1.1,.64,2.63,2.42s-7.12,7.38-15.04,6.62Z"/></g><path class="bo" d="M298.06,330.28s-.5-15.47,7.17-29.69c7.67-14.22,23.19-22.37,23.19-22.37,0,0-15.28,5.54-24.14,15.41-8.87,9.87-12.59,29.19-12.59,29.19,0,0,4.14,1.27,6.37,7.46Z"/><path class="bn" d="M307.25,305.27s9.44,1.87,14.67,7.32c5.23,5.44,5.23,7.66,5.23,7.66,0,0-12.42-5.25-19.91-5.02v-9.95Z"/><path class="bt" d="M283.26,350.36s5.78,6.64,9.19,19.74c0,0-6.63-10.38-11.48-13.53,0,0-.64-3.06,2.3-6.21Z"/><path class="by" d="M294.57,392.02c-.54,.4-1,.67-1.36,.78-6.38,1.79-39.81-20.16-41.85-21.68-1.51-1.13-5.78-.59-7.92-.24,0,0-3.74-8.43-1.1-18.3,0,0,5.39,11.77,10.8,17.52,5.43,5.75,35.05,16.67,35.05,16.67,0,0,1.54,3.39,5.28,4.75,.42,.15,.79,.32,1.1,.5Z"/><path class="br" d="M298.06,352.57s19.91-7.41,29.09-18.81c0,0-9.95,6.33-19.91,10.35-9.95,4.02-13.01,4.79-13.01,4.79,0,0,0,3.24,3.83,3.66Z"/><path class="bl" d="M317.58,292.51s6.51-1.66,9.57-1.66,11.36,4.86,13.14,6.45c1.79,1.59,7.53,13.33,8.68,14.6,1.15,1.28,8.77,4.61,8.77,4.61,0,0-11.79-21.33-18.51-26.3-6.72-4.98-14.12-3.86-14.12-3.86,0,0-3.16,1.09-7.53,6.16Z"/><path class="bw" d="M372.96,399.31s-2.17,7.66-6.38,16.2c-4.2,8.55-9.74,13.9-9.74,13.9l.77-7.6s10.03-20.73,11.91-28.9c0,0-2.21-27.14-10.37-51.34-1.62-4.79-3.23-9.35-4.85-13.59,4.5,11.14,10.3,26.45,13.7,39.18,6.11,22.96,4.97,32.15,4.97,32.15Z"/><path class="cr" d="M191.65,289.75s2.38,3.52,3.74,4.27c1.36,.75,3.06-.91,2.89-3.03-.17-2.13-3.28-4.29-4.55-4.61s-2.83,.47-3.01,1.2c-.18,.73,.93,2.17,.93,2.17Z"/><path class="bs" d="M222.52,340.17l9.82,7.36s4.99-7.5,8.64-10.16c0,0-3.88,8.07-2.24,19.72l-16.22-16.92Z"/><path class="bk" d="M243.45,336.04s1.28,13.64,3.7,17.08c2.42,3.45,31.39,5.49,33.81,3.45,0,0-21.19-7.79-27.82-13.02-6.63-5.23-9.69-7.51-9.69-7.51Z"/><path class="bj" d="M291.69,349.53s9.43-4.1,14.71-7.17,11.65-17.05,11.18-20.52c-.46-3.47-10.33-4.8-10.33-4.8,0,0-9.85,25.71-15.56,32.49Z"/></g></g></g></g></g></svg>